<svg width="32" height="31" viewBox="0 0 32 31" fill="none" xmlns="http://www.w3.org/2000/svg">
<g opacity="0.3" filter="url(#filter0_d)">
<path d="M13 22C13.5523 22 14 21.5523 14 21C14 20.4477 13.5523 20 13 20C12.4477 20 12 20.4477 12 21C12 21.5523 12.4477 22 13 22Z" stroke="black" stroke-width="2" stroke-linecap="round" stroke-linejoin="round"/>
<path d="M24 22C24.5523 22 25 21.5523 25 21C25 20.4477 24.5523 20 24 20C23.4477 20 23 20.4477 23 21C23 21.5523 23.4477 22 24 22Z" stroke="black" stroke-width="2" stroke-linecap="round" stroke-linejoin="round"/>
<path d="M5 1H9L11.68 14.39C11.7714 14.8504 12.0219 15.264 12.3875 15.5583C12.7532 15.8526 13.2107 16.009 13.68 16H23.4C23.8693 16.009 24.3268 15.8526 24.6925 15.5583C25.0581 15.264 25.3086 14.8504 25.4 14.39L27 6H10" stroke="black" stroke-width="2" stroke-linecap="round" stroke-linejoin="round"/>
</g>
<defs>
<filter id="filter0_d" x="0" y="0" width="32" height="32" filterUnits="userSpaceOnUse" color-interpolation-filters="sRGB">
<feFlood flood-opacity="0" result="BackgroundImageFix"/>
<feColorMatrix in="SourceAlpha" type="matrix" values="0 0 0 0 0 0 0 0 0 0 0 0 0 0 0 0 0 0 127 0"/>
<feOffset dy="4"/>
<feGaussianBlur stdDeviation="2"/>
<feColorMatrix type="matrix" values="0 0 0 0 0 0 0 0 0 0 0 0 0 0 0 0 0 0 0.25 0"/>
<feBlend mode="normal" in2="BackgroundImageFix" result="effect1_dropShadow"/>
<feBlend mode="normal" in="SourceGraphic" in2="effect1_dropShadow" result="shape"/>
</filter>
</defs>
</svg>
