<svg width="32" height="31" viewBox="0 0 32 31" fill="none" xmlns="http://www.w3.org/2000/svg">
<g filter="url(#filter0_d)">
<path d="M24.84 4.60999C24.3292 4.099 23.7228 3.69364 23.0554 3.41708C22.3879 3.14052 21.6725 2.99817 20.95 2.99817C20.2275 2.99817 19.5121 3.14052 18.8446 3.41708C18.1772 3.69364 17.5708 4.099 17.06 4.60999L16 5.66999L14.94 4.60999C13.9083 3.5783 12.509 2.9987 11.05 2.9987C9.59096 2.9987 8.19169 3.5783 7.16 4.60999C6.1283 5.64169 5.54871 7.04096 5.54871 8.49999C5.54871 9.95903 6.1283 11.3583 7.16 12.39L8.22 13.45L16 21.23L23.78 13.45L24.84 12.39C25.351 11.8792 25.7563 11.2728 26.0329 10.6053C26.3095 9.93789 26.4518 9.22248 26.4518 8.49999C26.4518 7.77751 26.3095 7.0621 26.0329 6.39464C25.7563 5.72718 25.351 5.12075 24.84 4.60999V4.60999Z" stroke="#ADADAF" stroke-width="2" stroke-linecap="round" stroke-linejoin="round"/>
</g>
<defs>
<filter id="filter0_d" x="0" y="0" width="32" height="32" filterUnits="userSpaceOnUse" color-interpolation-filters="sRGB">
<feFlood flood-opacity="0" result="BackgroundImageFix"/>
<feColorMatrix in="SourceAlpha" type="matrix" values="0 0 0 0 0 0 0 0 0 0 0 0 0 0 0 0 0 0 127 0"/>
<feOffset dy="4"/>
<feGaussianBlur stdDeviation="2"/>
<feColorMatrix type="matrix" values="0 0 0 0 0 0 0 0 0 0 0 0 0 0 0 0 0 0 0.25 0"/>
<feBlend mode="normal" in2="BackgroundImageFix" result="effect1_dropShadow"/>
<feBlend mode="normal" in="SourceGraphic" in2="effect1_dropShadow" result="shape"/>
</filter>
</defs>
</svg>
